HIERARCHY
ROOT Pelvis
{
	OFFSET 0.000000 0.000000 0.000000
	CHANNELS 6 Xposition Yposition Zposition Xrotation Yrotation Zrotation
	JOINT LeftUpLeg_virtual
	{
		OFFSET 0.000000 0.000000 0.000000
		CHANNELS 3 Xrotation Yrotation Zrotation
		JOINT LeftUpLeg
		{
			OFFSET 18.735201 -5.666702 -4.541200
			CHANNELS 3 Xrotation Yrotation Zrotation
			JOINT LeftLeg
			{
				OFFSET -0.021200 -31.938179 0.493100
				CHANNELS 3 Xrotation Yrotation Zrotation
				JOINT LeftFoot
				{
					OFFSET 0.021200 -31.938179 -4.336299
					CHANNELS 3 Xrotation Yrotation Zrotation
					JOINT LeftToeBase
					{
						OFFSET 0.943001 -26.722000 15.023500
						CHANNELS 3 Xrotation Yrotation Zrotation
						End Site
						{
							OFFSET 0 0 0
						}
					}
				}
			}
		}
	}
	JOINT RightUpLeg_virtual
	{
		OFFSET 0.000000 0.000000 0.000000
		CHANNELS 3 Xrotation Yrotation Zrotation
		JOINT RightUpLeg
		{
			OFFSET -18.735201 -5.666702 -4.541200
			CHANNELS 3 Xrotation Yrotation Zrotation
			JOINT RightLeg
			{
				OFFSET 0.018946 -31.938133 0.493100
				CHANNELS 3 Xrotation Yrotation Zrotation
				JOINT RightFoot
				{
					OFFSET -0.018946 -31.938126 -4.336299
					CHANNELS 3 Xrotation Yrotation Zrotation
					JOINT RightToeBase
					{
						OFFSET -0.943001 -26.722004 15.023500
						CHANNELS 3 Xrotation Yrotation Zrotation
						End Site
						{
							OFFSET 0 0 0
						}
					}
				}
			}
		}
	}
	JOINT Hips_virtual
	{
		OFFSET 0.000000 0.000000 0.000000
		CHANNELS 3 Xrotation Yrotation Zrotation
		JOINT Hips
		{
			OFFSET -0.000000 -0.000000 -0.000000
			CHANNELS 3 Xrotation Yrotation Zrotation
			JOINT Spine
			{
				OFFSET 0.000000 10.199997 -0.299500
				CHANNELS 3 Xrotation Yrotation Zrotation
				JOINT Spine1
				{
					OFFSET 0.000000 11.900002 -1.516600
					CHANNELS 3 Xrotation Yrotation Zrotation
					JOINT Spine2
					{
						OFFSET 0.000000 13.600006 -2.842500
						CHANNELS 3 Xrotation Yrotation Zrotation
						JOINT Neck_virtual
						{
							OFFSET 0.000000 0.000000 0.000000
							CHANNELS 3 Xrotation Yrotation Zrotation
							JOINT Neck
							{
								OFFSET 0.000000 9.624100 -2.890100
								CHANNELS 3 Xrotation Yrotation Zrotation
								JOINT Head
								{
									OFFSET 0.000000 14.068802 -1.351900
									CHANNELS 3 Xrotation Yrotation Zrotation
									End Site
									{
										OFFSET 0 0 0
									}
								}
							}
						}
						JOINT LeftShoulder_virtual
						{
							OFFSET 0.000000 0.000000 0.000000
							CHANNELS 3 Xrotation Yrotation Zrotation
							JOINT LeftShoulder
							{
								OFFSET 15.263000 10.923401 -0.547700
								CHANNELS 3 Xrotation Yrotation Zrotation
								JOINT LeftArm
								{
									OFFSET 25.438599 -2.830597 -13.032500
									CHANNELS 3 Xrotation Yrotation Zrotation
									JOINT LeftForeArm
									{
										OFFSET 29.960503 0.000000 0.000000
										CHANNELS 3 Xrotation Yrotation Zrotation
										JOINT LeftHand
										{
											OFFSET 27.849251 0.000000 0.000000
											CHANNELS 3 Xrotation Yrotation Zrotation
											End Site
											{
												OFFSET 0 0 0
											}
										}
									}
								}
							}
						}
						JOINT RightShoulder_virtual
						{
							OFFSET 0.000000 0.000000 0.000000
							CHANNELS 3 Xrotation Yrotation Zrotation
							JOINT RightShoulder
							{
								OFFSET -15.263000 10.923401 -0.547700
								CHANNELS 3 Xrotation Yrotation Zrotation
								JOINT RightArm
								{
									OFFSET -25.438599 -2.830597 -13.032500
									CHANNELS 3 Xrotation Yrotation Zrotation
									JOINT RightForeArm
									{
										OFFSET -29.960503 0.000000 0.000000
										CHANNELS 3 Xrotation Yrotation Zrotation
										JOINT RightHand
										{
											OFFSET -27.849251 0.000000 0.000000
											CHANNELS 3 Xrotation Yrotation Zrotation
											End Site
											{
												OFFSET 0 0 0
											}
										}
									}
								}
							}
						}
					}
				}
			}
		}
	}
}
MOTION
Frames: 8
Frame Time: 0.03333333
-6.032022 88.277222 43.965099 0.000000 0.000000 0.000000 4.265306 -10.222537 -6.594723 -39.959130 10.761515 11.958448 47.226640 3.748493 -1.658241 -2.270695 4.396518 -5.413442 0.000000 0.000000 0.000000 17.963980 -0.784957 -9.319597 -5.671814 -6.498694 -24.598950 79.408865 -3.244600 -2.854906 19.069463 -2.577378 4.022344 0.000000 0.000000 0.000000 31.797553 36.242056 -12.235762 -1.532827 -30.785486 -13.044561 14.731847 16.140818 -10.768908 11.756484 9.077058 -8.044895 0.000000 0.000000 0.000000 8.469708 8.751825 -4.997392 -0.377082 -0.449285 1.771547 0.000000 0.000000 0.000000 10.989942 12.793524 -7.288838 1.221640 0.120978 1.767675 13.084534 -16.883790 -42.436802 13.254289 -54.772588 7.733545 0.000000 0.000000 0.000000 13.841754 10.547241 -6.970950 4.720742 19.752347 -12.566123 6.539082 61.267289 -5.093188 3.101231 61.721182 4.198540 0.000000 0.000000 0.000000 
-6.262675 88.315033 44.344551 0.000000 0.000000 0.000000 4.310870 -9.426013 -6.741121 -39.851470 10.989808 11.848846 47.176380 3.510445 -1.539423 -2.349188 4.098115 -5.421951 0.000000 0.000000 0.000000 17.015249 -0.244822 -9.127087 -7.047232 -6.085352 -24.343329 78.107625 -3.003813 -3.145366 18.353330 -2.247730 3.760343 0.000000 0.000000 0.000000 31.010377 35.719970 -11.807842 -1.965524 -29.452592 -13.530831 14.551585 15.164683 -10.595276 11.703530 8.561891 -7.957226 0.000000 0.000000 0.000000 8.466247 8.482242 -4.901332 -0.292119 -0.436196 1.763441 0.000000 0.000000 0.000000 11.145740 12.377779 -7.065347 1.276698 -0.217646 2.336805 11.042031 -16.632651 -40.743984 12.665779 -54.645816 7.923486 0.000000 0.000000 0.000000 13.954182 10.140066 -6.821016 4.902548 19.041960 -12.839444 5.856876 59.020443 -6.276269 2.985943 60.026831 3.412736 0.000000 0.000000 0.000000 
-6.456817 88.374031 44.798695 0.000000 0.000000 0.000000 4.328075 -8.575238 -6.890487 -39.745113 11.221020 11.724751 47.162818 3.261274 -1.405381 -2.402033 3.780276 -5.415342 0.000000 0.000000 0.000000 16.023993 0.200806 -8.900217 -8.481070 -5.696887 -24.070801 76.779850 -2.702525 -3.452991 17.586964 -1.845221 3.522339 0.000000 0.000000 0.000000 30.187944 35.090493 -11.343987 -2.259788 -28.050706 -14.022499 14.390044 14.122293 -10.430596 11.667299 8.002091 -7.876339 0.000000 0.000000 0.000000 8.481288 8.153896 -4.800388 -0.196682 -0.438031 1.753175 0.000000 0.000000 0.000000 11.311347 11.916541 -6.828039 1.338620 -0.567537 2.906033 8.777772 -16.315406 -39.110141 11.966660 -54.496160 8.030950 0.000000 0.000000 0.000000 14.081676 9.679724 -6.687734 5.104120 18.215169 -13.249927 4.986865 56.748511 -7.304886 2.758095 58.603754 2.736545 0.000000 0.000000 0.000000 
-6.598984 88.457726 45.319340 0.000000 0.000000 0.000000 4.324672 -7.678358 -7.036980 -39.631510 11.453176 11.589678 47.177571 3.011950 -1.256338 -2.434767 3.454790 -5.386553 0.000000 0.000000 0.000000 14.983871 0.542441 -8.648789 -9.976821 -5.333985 -23.790789 75.387380 -2.339682 -3.774179 16.742102 -1.373064 3.312781 0.000000 0.000000 0.000000 29.341885 34.364283 -10.848730 -2.410106 -26.551870 -14.491317 14.250537 13.007902 -10.275679 11.649414 7.394798 -7.801640 0.000000 0.000000 0.000000 8.510263 7.759080 -4.693527 -0.092588 -0.458759 1.740519 0.000000 0.000000 0.000000 11.486133 11.401912 -6.574933 1.411716 -0.955612 3.474072 6.320970 -15.993462 -37.536138 11.182968 -54.355813 8.068389 0.000000 0.000000 0.000000 14.226290 9.163640 -6.568022 5.322944 17.269455 -13.791478 4.009265 54.466975 -8.241194 2.459112 57.469341 2.137469 0.000000 0.000000 0.000000 
-6.674743 88.568413 45.894169 0.000000 0.000000 0.000000 4.309309 -6.753636 -7.176446 -39.503984 11.683345 11.446699 47.209844 2.775102 -1.092937 -2.455222 3.135387 -5.327916 0.000000 0.000000 0.000000 13.896489 0.772994 -8.381233 -11.527196 -4.998687 -23.510020 73.899778 -1.912713 -4.104174 15.796426 -0.833086 3.138781 0.000000 0.000000 0.000000 28.479526 33.547905 -10.324813 -2.426661 -24.949715 -14.916638 14.135097 11.817926 -10.130837 11.650663 6.738780 -7.732197 0.000000 0.000000 0.000000 8.545408 7.292088 -4.580154 0.016995 -0.501711 1.724967 0.000000 0.000000 0.000000 11.669067 10.827648 -6.303795 1.500244 -1.407628 4.042016 3.709025 -15.734143 -36.022363 10.344842 -54.261171 8.051033 0.000000 0.000000 0.000000 14.386612 8.591351 -6.456491 5.552510 16.207247 -14.448140 2.967195 52.189503 -9.108222 2.111470 56.628221 1.602898 0.000000 0.000000 0.000000 
-6.672451 88.705597 46.511463 0.000000 0.000000 0.000000 4.289042 -5.824381 -7.306613 -39.360082 11.908090 11.298616 47.246905 2.563185 -0.915872 -2.473493 2.835645 -5.231840 0.000000 0.000000 0.000000 12.771243 0.885145 -8.105368 -13.115764 -4.694924 -23.234379 72.299035 -1.416066 -4.434430 14.735109 -0.225163 3.016218 0.000000 0.000000 0.000000 27.603779 32.641962 -9.773249 -2.331896 -23.261907 -15.285502 14.044708 10.551637 -9.995674 11.671058 6.034745 -7.666594 0.000000 0.000000 0.000000 8.576883 6.750048 -4.460396 0.127975 -0.569134 1.705742 0.000000 0.000000 0.000000 11.858890 10.190007 -6.012739 1.607815 -1.944697 4.611426 0.982195 -15.600765 -34.570692 9.481184 -54.246698 7.993415 0.000000 0.000000 0.000000 14.558080 7.964637 -6.345931 5.783261 15.035753 -15.195100 1.875211 49.928099 -9.900550 1.722990 56.073042 1.134841 0.000000 0.000000 0.000000 
-6.585130 88.864731 47.164093 0.000000 0.000000 0.000000 4.267701 -4.913010 -7.426760 -39.202731 12.124090 11.148365 47.275332 2.386654 -0.725673 -2.501249 2.566960 -5.091773 0.000000 0.000000 0.000000 11.623283 0.870624 -7.829971 -14.720728 -4.427816 -22.971214 70.581973 -0.841483 -4.750975 13.551275 0.451688 2.972743 0.000000 0.000000 0.000000 26.714222 31.641992 -9.194440 -2.155329 -21.525268 -15.591064 13.979326 9.212096 -9.868844 11.709720 5.285746 -7.602824 0.000000 0.000000 0.000000 8.594107 6.133922 -4.335437 0.235892 -0.661588 1.681806 0.000000 0.000000 0.000000 12.053902 9.488552 -5.700932 1.736649 -2.579872 5.181977 -1.821414 -15.642600 -33.186626 8.614971 -54.338431 7.906085 0.000000 0.000000 0.000000 14.733314 7.287674 -6.228142 6.003731 13.767389 -16.001007 0.727951 47.694221 -10.597090 1.290516 55.786967 0.744537 0.000000 0.000000 0.000000 
-6.412024 89.036850 47.851231 0.000000 0.000000 0.000000 4.245510 -4.036056 -7.537094 -39.040046 12.328822 10.999466 47.283064 2.252476 -0.522742 -2.550212 2.336981 -4.903359 0.000000 0.000000 0.000000 10.470584 0.721764 -7.566207 -16.319111 -4.202058 -22.730919 68.760252 -0.180103 -5.034381 12.245819 1.196730 3.046361 0.000000 0.000000 0.000000 25.808800 30.542369 -8.590016 -1.927951 -19.784760 -15.831291 13.937843 7.807150 -9.747930 11.764736 4.497595 -7.538277 0.000000 0.000000 0.000000 8.587142 5.449317 -4.207707 0.336527 -0.777438 1.651899 0.000000 0.000000 0.000000 12.251577 8.726802 -5.369175 1.886876 -3.315425 5.749617 -4.669024 -15.887303 -31.880973 7.760569 -54.549142 7.793516 0.000000 0.000000 0.000000 14.902336 6.567220 -6.094962 6.201710 12.420399 -16.831275 -0.490886 45.501764 -11.173019 0.803646 55.749643 0.447500 0.000000 0.000000 0.000000 
